<svg width="18" height="16" viewBox="0 0 18 16" fill="none" xmlns="http://www.w3.org/2000/svg">
<path d="M10.0203 7.54055C11.1874 7.39402 12.3383 7.86372 13.0764 8.77293C13.1306 8.83967 13.2272 8.85427 13.2967 8.80358C13.631 8.55927 13.9189 8.25405 14.1446 7.90172C15.5512 5.70705 13.9892 2.74479 11.3206 2.74479C9.57916 2.74479 8.14386 4.07932 7.98411 5.77947C7.97766 5.84814 8.01559 5.91372 8.07869 5.9416C8.80717 6.2638 9.42953 6.79467 9.86672 7.46959C9.89985 7.5208 9.95982 7.54813 10.0203 7.54055V7.54055Z" fill="url(#paint0_linear_1498_12)"/>
<path d="M11.3203 2.22916C11.6051 2.22916 11.8359 1.99829 11.8359 1.71354V0.682289C11.8359 0.397535 11.6051 0.166664 11.3203 0.166664C11.0355 0.166664 10.8047 0.397535 10.8047 0.682289V1.71354C10.8047 1.99829 11.0355 2.22916 11.3203 2.22916Z" fill="url(#paint1_linear_1498_12)"/>
<path d="M16.7344 5.58073H15.7031C15.4183 5.58073 15.1875 5.8116 15.1875 6.09635C15.1875 6.38111 15.4183 6.61198 15.7031 6.61198H16.7344C17.0192 6.61198 17.25 6.38111 17.25 6.09635C17.25 5.8116 17.0192 5.58073 16.7344 5.58073Z" fill="url(#paint2_linear_1498_12)"/>
<path d="M14.7835 8.83086C14.5822 8.62951 14.2557 8.62951 14.0544 8.83086C13.853 9.03225 13.853 9.3587 14.0544 9.56005L14.7835 10.2892C14.8842 10.3899 15.0162 10.4403 15.1481 10.4403C15.6034 10.4403 15.8385 9.88576 15.5127 9.56008L14.7835 8.83086Z" fill="url(#paint3_linear_1498_12)"/>
<path d="M7.85679 3.36183C8.05814 3.56321 8.3846 3.56321 8.58598 3.36183C8.78737 3.16044 8.78737 2.83399 8.58598 2.63264L7.85679 1.90345C7.6555 1.7021 7.32902 1.7021 7.1276 1.90345C6.92622 2.10483 6.92622 2.43129 7.1276 2.63264L7.85679 3.36183Z" fill="url(#paint4_linear_1498_12)"/>
<path d="M14.4195 3.51285C14.5515 3.51285 14.6834 3.46251 14.7841 3.3618L15.5133 2.63261C15.7147 2.43123 15.7147 2.10477 15.5133 1.90342C15.3119 1.70207 14.9855 1.70204 14.7841 1.90342L14.0549 2.63264C13.7291 2.95842 13.9643 3.51285 14.4195 3.51285V3.51285Z" fill="url(#paint5_linear_1498_12)"/>
<path d="M12.7554 11.3815C13.1529 9.42297 11.1018 7.91296 9.36239 8.80551C8.98008 7.54387 7.80833 6.62541 6.42188 6.62541C4.62254 6.62541 3.20199 8.16645 3.36196 9.97233C1.90042 10.0865 0.75 11.3086 0.75 12.7995C0.75 14.3614 2.01538 15.6354 3.58594 15.6354H12.8027C13.9774 15.6354 14.9297 14.6831 14.9297 13.5085C14.9297 12.3857 14.0463 11.3815 12.7554 11.3815Z" fill="url(#paint6_linear_1498_12)"/>
<defs>
<linearGradient id="paint0_linear_1498_12" x1="7.9834" y1="6.38135" x2="14.6725" y2="6.38135" gradientUnits="userSpaceOnUse">
<stop stop-color="#2942CB"/>
<stop offset="1" stop-color="#273DB1"/>
</linearGradient>
<linearGradient id="paint1_linear_1498_12" x1="10.8047" y1="1.39843" x2="11.8359" y2="1.39843" gradientUnits="userSpaceOnUse">
<stop stop-color="#2942CB"/>
<stop offset="1" stop-color="#273DB1"/>
</linearGradient>
<linearGradient id="paint2_linear_1498_12" x1="15.1875" y1="6.19661" x2="17.25" y2="6.19661" gradientUnits="userSpaceOnUse">
<stop stop-color="#2942CB"/>
<stop offset="1" stop-color="#273DB1"/>
</linearGradient>
<linearGradient id="paint3_linear_1498_12" x1="13.9033" y1="9.73122" x2="15.6643" y2="9.73122" gradientUnits="userSpaceOnUse">
<stop stop-color="#2942CB"/>
<stop offset="1" stop-color="#273DB1"/>
</linearGradient>
<linearGradient id="paint4_linear_1498_12" x1="6.97656" y1="2.8038" x2="8.73702" y2="2.8038" gradientUnits="userSpaceOnUse">
<stop stop-color="#2942CB"/>
<stop offset="1" stop-color="#273DB1"/>
</linearGradient>
<linearGradient id="paint5_linear_1498_12" x1="13.9033" y1="2.80378" x2="15.6643" y2="2.80378" gradientUnits="userSpaceOnUse">
<stop stop-color="#2942CB"/>
<stop offset="1" stop-color="#273DB1"/>
</linearGradient>
<linearGradient id="paint6_linear_1498_12" x1="0.75" y1="12.0064" x2="14.9297" y2="12.0064" gradientUnits="userSpaceOnUse">
<stop stop-color="#2942CB"/>
<stop offset="1" stop-color="#273DB1"/>
</linearGradient>
</defs>
</svg>
