<svg width="34" height="34" viewBox="0 0 34 34" fill="none" xmlns="http://www.w3.org/2000/svg">
<path d="M17.1415 28.05C17.6111 28.05 17.9915 27.6692 17.9915 27.2C17.9915 26.7304 17.6112 26.35 17.1415 26.35C16.6719 26.35 16.2915 26.7303 16.2915 27.2C16.2915 27.6692 16.6719 28.05 17.1415 28.05Z" fill="white"/>
<path d="M17.9917 5.95001H16.2917C16.0571 5.95001 15.8667 6.13997 15.8667 6.375C15.8667 6.61002 16.0571 6.80003 16.2917 6.80003H17.9917C18.2262 6.80003 18.4166 6.61007 18.4166 6.37505C18.4166 6.14002 18.2263 5.95001 17.9917 5.95001Z" fill="white"/>
<path d="M14.5915 6.79998C14.8262 6.79998 15.0165 6.60971 15.0165 6.375C15.0165 6.14028 14.8262 5.95001 14.5915 5.95001C14.3568 5.95001 14.1665 6.14028 14.1665 6.375C14.1665 6.60971 14.3568 6.79998 14.5915 6.79998Z" fill="white"/>
<path d="M17.5664 15.3V18.9614C18.1831 18.5019 18.753 17.1033 18.8316 15.3H17.5664V15.3Z" fill="white"/>
<path d="M16.7164 18.9611V15.2997H15.4512C15.5298 17.1035 16.0997 18.5017 16.7164 18.9611Z" fill="white"/>
<path d="M17.5664 10.7889V14.4503H18.8316C18.753 12.6465 18.1831 11.2483 17.5664 10.7889Z" fill="white"/>
<path d="M16.7164 14.45V10.7886C16.0997 11.2481 15.5298 12.6467 15.4512 14.45H16.7164Z" fill="white"/>
<path d="M21.3701 14.45C21.2141 12.8847 20.2048 11.5672 18.8154 10.9697C19.3088 11.8078 19.628 13.0292 19.6816 14.45H21.3701Z" fill="white"/>
<path d="M12.9131 15.3C13.0691 16.8652 14.0784 18.1828 15.4678 18.7803C14.9744 17.9422 14.6552 16.7207 14.6016 15.3H12.9131V15.3Z" fill="white"/>
<path d="M21.8165 4.25H12.4665C11.2948 4.25 10.3415 5.20326 10.3415 6.37502V8.075C10.1069 8.075 9.9165 8.26496 9.9165 8.49998C9.9165 8.73501 10.1069 8.92497 10.3415 8.92497V10.2C10.1069 10.2 9.9165 10.3899 9.9165 10.625C9.9165 10.86 10.1069 11.0499 10.3415 11.0499V11.9C10.1069 11.9 9.9165 12.09 9.9165 12.325C9.9165 12.56 10.1069 12.75 10.3415 12.75V25.075V27.625C10.3415 28.7967 11.2947 29.75 12.4665 29.75H21.8165C22.9882 29.75 23.9415 28.7967 23.9415 27.625V25.075V8.075V6.37502C23.9415 5.20326 22.9882 4.25 21.8165 4.25ZM23.0915 27.625C23.0915 28.3279 22.5194 28.9 21.8165 28.9H12.4665C11.7636 28.9 11.1915 28.3279 11.1915 27.625V25.5H23.0915V27.625ZM17.1415 19.975C14.3293 19.975 12.0415 17.6872 12.0415 14.875C12.0415 12.0628 14.3293 9.77498 17.1415 9.77498C19.9537 9.77498 22.2415 12.0628 22.2415 14.875C22.2415 17.6872 19.9537 19.975 17.1415 19.975ZM20.5415 21.25C20.5415 21.485 20.3511 21.675 20.1165 21.675H14.1665C13.9319 21.675 13.7415 21.485 13.7415 21.25C13.7415 21.015 13.9319 20.825 14.1665 20.825H20.1165C20.3511 20.825 20.5415 21.015 20.5415 21.25ZM12.4665 22.525H21.8165C22.0511 22.525 22.2415 22.7149 22.2415 22.95C22.2415 23.185 22.0511 23.375 21.8165 23.375H12.4665C12.2319 23.375 12.0415 23.185 12.0415 22.95C12.0415 22.715 12.2319 22.525 12.4665 22.525ZM23.0915 7.65002H11.1915V6.37502C11.1915 5.67207 11.7636 5.10002 12.4665 5.10002H21.8165C22.5194 5.10002 23.0915 5.67207 23.0915 6.37502V7.65002V7.65002Z" fill="white"/>
<path d="M15.4678 10.9696C14.0784 11.5672 13.0691 12.8846 12.9131 14.4499H14.6016C14.6552 13.0291 14.9744 11.8077 15.4678 10.9696Z" fill="white"/>
<path d="M19.6816 15.3C19.628 16.7208 19.3088 17.9422 18.8154 18.7803C20.2048 18.1827 21.2137 16.8652 21.3701 15.3H19.6816V15.3Z" fill="white"/>
</svg>
